<svg width="100" height="100" viewBox="0 0 100 100" fill="none" xmlns="http://www.w3.org/2000/svg">
<path d="M50.0001 12.5C51.1052 12.5 52.165 12.939 52.9464 13.7204C53.7278 14.5018 54.1668 15.5616 54.1668 16.6667V42.7833L76.7835 29.725C77.74 29.1812 78.8727 29.0378 79.9346 29.326C80.9964 29.6143 81.9011 30.3109 82.4513 31.2638C83.0014 32.2166 83.1524 33.3484 82.8711 34.4122C82.5899 35.4759 81.8993 36.3852 80.9501 36.9417L58.3335 50L80.9501 63.0583C81.4278 63.3299 81.8471 63.6933 82.1838 64.1276C82.5204 64.5619 82.7679 65.0585 82.9118 65.5888C83.0558 66.1191 83.0935 66.6726 83.0227 67.2175C82.9518 67.7625 82.7739 68.288 82.4991 68.7639C82.2244 69.2397 81.8582 69.6566 81.4217 69.9904C80.9852 70.3241 80.487 70.5683 79.9557 70.7087C79.4245 70.8492 78.8707 70.8832 78.3263 70.8087C77.7818 70.7343 77.2575 70.5529 76.7835 70.275L54.1668 57.2167V83.3333C54.1668 84.4384 53.7278 85.4982 52.9464 86.2796C52.165 87.061 51.1052 87.5 50.0001 87.5C48.8951 87.5 47.8353 87.061 47.0539 86.2796C46.2725 85.4982 45.8335 84.4384 45.8335 83.3333V57.2167L23.2168 70.275C22.7428 70.5529 22.2184 70.7343 21.674 70.8087C21.1296 70.8832 20.5758 70.8492 20.0445 70.7087C19.5133 70.5683 19.0151 70.3241 18.5786 69.9904C18.1421 69.6566 17.7759 69.2397 17.5011 68.7639C17.2264 68.288 17.0485 67.7625 16.9776 67.2175C16.9068 66.6726 16.9445 66.1191 17.0884 65.5888C17.2324 65.0585 17.4799 64.5619 17.8165 64.1276C18.1532 63.6933 18.5724 63.3299 19.0501 63.0583L41.6668 50L19.0501 36.9417C18.1009 36.3852 17.4104 35.4759 17.1291 34.4122C16.8479 33.3484 16.9988 32.2166 17.549 31.2638C18.0991 30.3109 19.0039 29.6143 20.0657 29.326C21.1275 29.0378 22.2603 29.1812 23.2168 29.725L45.8335 42.7833V16.6667C45.8335 15.5616 46.2725 14.5018 47.0539 13.7204C47.8353 12.939 48.8951 12.5 50.0001 12.5Z" fill="#F82A2E"/>
</svg>
